<svg width="834" height="1024" viewBox="0 0 834 1024" fill="none" xmlns="http://www.w3.org/2000/svg">
<rect width="834" height="1024" fill="url(#paint0_linear_9_297)"/>
<path d="M-29.671 1257.7C18.5074 1276.09 70.5209 1279.95 121.219 1268.89C171.917 1257.84 219.541 1232.26 259.375 1194.68C299.209 1157.1 329.872 1108.83 348.326 1054.64C366.78 1000.46 372.386 942.243 364.589 885.758C356.792 829.273 335.862 776.479 303.871 732.604C271.881 688.73 229.94 655.296 182.201 635.614C134.463 615.932 82.5828 610.684 31.6987 620.391C-19.1853 630.097 -67.3083 654.421 -107.905 690.954L-106.388 693.087C-66.1318 656.861 -18.4123 632.741 32.045 623.116C82.5022 613.491 133.947 618.694 181.285 638.211C228.623 657.728 270.213 690.882 301.935 734.388C333.657 777.895 354.412 830.246 362.144 886.258C369.875 942.269 364.316 999.998 346.017 1053.73C327.717 1107.46 297.312 1155.32 257.812 1192.59C218.312 1229.85 171.088 1255.22 120.815 1266.18C70.5416 1277.14 18.9642 1273.31 -28.8101 1255.08L-29.671 1257.7Z" fill="white" fill-opacity="0.24"/>
<path d="M200.529 1295.86C250.529 1276.02 295.139 1242.12 329.943 1197.52C364.746 1152.92 388.536 1099.16 398.955 1041.57C409.375 983.981 406.063 924.555 389.348 869.179C372.633 813.802 343.095 764.395 303.658 725.851C264.221 687.307 216.253 660.963 164.505 649.427C112.757 637.891 59.0235 641.564 8.62537 660.081C-41.7727 678.599 -87.0872 711.319 -122.831 755.001C-158.574 798.684 -183.507 851.813 -195.161 909.129L-192.676 909.718C-181.12 852.882 -156.396 800.198 -120.953 756.882C-85.5087 713.566 -40.5742 681.12 9.40122 662.758C59.3767 644.396 112.66 640.754 163.974 652.193C215.288 663.632 262.853 689.756 301.959 727.976C341.065 766.197 370.356 815.189 386.931 870.102C403.506 925.014 406.79 983.942 396.458 1041.05C386.125 1098.16 362.536 1151.46 328.024 1195.69C293.512 1239.92 249.276 1273.53 199.696 1293.2L200.529 1295.86Z" fill="white" fill-opacity="0.24"/>
<defs>
<linearGradient id="paint0_linear_9_297" x1="417" y1="0" x2="417" y2="1024" gradientUnits="userSpaceOnUse">
<stop stop-color="#4696FF"/>
<stop offset="1" stop-color="#000A79"/>
</linearGradient>
</defs>
</svg>
