<svg width="30" height="30" viewBox="0 0 30 30" fill="none" xmlns="http://www.w3.org/2000/svg">
<g clip-path="url(#clip0_4_40)">
<path d="M15 29.125C22.801 29.125 29.125 22.801 29.125 15C29.125 7.19898 22.801 0.875 15 0.875C7.19898 0.875 0.875 7.19898 0.875 15C0.875 22.801 7.19898 29.125 15 29.125Z" stroke="#6D6D6D" stroke-opacity="0.48" stroke-width="1.5" stroke-miterlimit="10" stroke-linecap="round" stroke-linejoin="round"/>
<path d="M15 18.625C10.625 18.625 6.875 21.125 5 24.875C7.5 27.5 11.125 29 15 29C18.875 29 22.5 27.375 25 24.875C23.125 21.25 19.375 18.625 15 18.625Z" stroke="#6D6D6D" stroke-opacity="0.48" stroke-width="1.5" stroke-miterlimit="10" stroke-linecap="round" stroke-linejoin="round"/>
<path d="M15 15.375C17.4853 15.375 19.5 13.3603 19.5 10.875C19.5 8.38972 17.4853 6.375 15 6.375C12.5147 6.375 10.5 8.38972 10.5 10.875C10.5 13.3603 12.5147 15.375 15 15.375Z" stroke="#6D6D6D" stroke-opacity="0.48" stroke-width="1.5" stroke-miterlimit="10" stroke-linecap="round" stroke-linejoin="round"/>
</g>
<defs>
<clipPath id="clip0_4_40">
<rect width="30" height="30" fill="white"/>
</clipPath>
</defs>
</svg>
