<svg width="314" height="70" viewBox="0 0 314 70" fill="none" xmlns="http://www.w3.org/2000/svg">
<path d="M79.44 54V23.475H69.1V15.5H98.5525V23.475H88.2125V54H79.44ZM109.711 54.825C107.859 54.825 106.191 54.4675 104.706 53.7525C103.239 53.0375 102.075 52.0108 101.213 50.6725C100.351 49.3158 99.9206 47.7025 99.9206 45.8325C99.9206 44.2375 100.315 42.8258 101.103 41.5975C101.91 40.3508 103.111 39.3242 104.706 38.5175C106.319 37.7108 108.354 37.17 110.811 36.895C113.267 36.6017 116.146 36.6108 119.446 36.9225L119.556 42.34C117.704 42.01 116.045 41.845 114.578 41.845C113.13 41.845 111.901 41.9825 110.893 42.2575C109.903 42.5325 109.142 42.9358 108.611 43.4675C108.079 43.9808 107.813 44.6225 107.813 45.3925C107.813 46.4192 108.198 47.2075 108.968 47.7575C109.738 48.2892 110.765 48.555 112.048 48.555C113.185 48.555 114.202 48.3533 115.101 47.95C116.017 47.5467 116.741 46.96 117.273 46.19C117.805 45.42 118.071 44.485 118.071 43.385V36.8675C118.071 35.8225 117.851 34.9058 117.411 34.1175C116.989 33.3292 116.311 32.715 115.376 32.275C114.459 31.835 113.24 31.615 111.718 31.615C110.288 31.615 108.858 31.835 107.428 32.275C106.016 32.715 104.724 33.3658 103.551 34.2275L101.323 28.2875C103.138 27.1325 105.063 26.2892 107.098 25.7575C109.151 25.2258 111.15 24.96 113.093 24.96C115.733 24.96 118.043 25.3817 120.023 26.225C122.003 27.05 123.543 28.3333 124.643 30.075C125.761 31.8167 126.321 34.0442 126.321 36.7575V54H118.841V51.0025C117.942 52.2308 116.696 53.175 115.101 53.835C113.524 54.495 111.727 54.825 109.711 54.825ZM143.93 54.7975C141.363 54.7975 139.017 54.4767 136.89 53.835C134.763 53.175 132.939 52.2675 131.418 51.1125L134.14 45.145C135.625 46.1167 137.229 46.8867 138.953 47.455C140.676 48.0233 142.317 48.3075 143.875 48.3075C145.342 48.3075 146.469 48.0967 147.258 47.675C148.046 47.2533 148.44 46.6392 148.44 45.8325C148.44 45.1175 148.083 44.595 147.368 44.265C146.653 43.9167 145.268 43.55 143.215 43.165C139.493 42.505 136.771 41.4508 135.048 40.0025C133.324 38.5542 132.463 36.5558 132.463 34.0075C132.463 32.2108 132.958 30.6342 133.948 29.2775C134.956 27.9208 136.34 26.8667 138.1 26.115C139.86 25.345 141.886 24.96 144.178 24.96C146.414 24.96 148.532 25.2625 150.53 25.8675C152.528 26.4725 154.243 27.3067 155.673 28.37L153.033 34.3375C152.281 33.7508 151.419 33.2467 150.448 32.825C149.494 32.385 148.495 32.0458 147.45 31.8075C146.405 31.5692 145.388 31.45 144.398 31.45C143.133 31.45 142.106 31.6517 141.318 32.055C140.529 32.44 140.135 32.9992 140.135 33.7325C140.135 34.4658 140.483 35.0067 141.18 35.355C141.877 35.7033 143.233 36.0975 145.25 36.5375C149.173 37.3442 151.96 38.4258 153.61 39.7825C155.26 41.1392 156.085 43.0275 156.085 45.4475C156.085 47.3358 155.572 48.9767 154.545 50.37C153.537 51.7633 152.116 52.8542 150.283 53.6425C148.468 54.4125 146.35 54.7975 143.93 54.7975ZM162.111 54V14.4H170.718V35.6025L179.463 26.06H189.473L179.683 37.28L190.408 54H180.206L173.413 42.9175L170.718 45.75V54H162.111ZM201.579 54V23.475H191.239V15.5H220.691V23.475H210.351V54H201.579ZM225.597 54V26.06H234.204V54H225.597ZM229.887 21.825C228.475 21.825 227.256 21.385 226.229 20.505C225.203 19.625 224.689 18.4425 224.689 16.9575C224.689 15.4725 225.203 14.29 226.229 13.41C227.256 12.53 228.475 12.09 229.887 12.09C231.299 12.09 232.518 12.53 233.544 13.41C234.571 14.29 235.084 15.4725 235.084 16.9575C235.084 18.4425 234.571 19.625 233.544 20.505C232.518 21.385 231.299 21.825 229.887 21.825ZM253.531 54.825C250.855 54.825 248.462 54.2108 246.354 52.9825C244.264 51.7358 242.614 50.0033 241.404 47.785C240.212 45.5667 239.616 42.9817 239.616 40.03C239.616 37.94 239.955 36.0058 240.634 34.2275C241.33 32.4308 242.302 30.8633 243.549 29.525C244.814 28.1683 246.299 27.1142 248.004 26.3625C249.727 25.6108 251.615 25.235 253.669 25.235C255.869 25.235 257.83 25.6658 259.554 26.5275C261.295 27.3892 262.799 28.6633 264.064 30.35L262.111 32.33V14.4H270.719V54H263.266V46.8225L264.449 48.775C263.624 50.5533 262.267 52.0108 260.379 53.1475C258.509 54.2658 256.226 54.825 253.531 54.825ZM255.099 47.4C256.437 47.4 257.638 47.0975 258.701 46.4925C259.765 45.8875 260.599 45.035 261.204 43.935C261.827 42.835 262.139 41.5333 262.139 40.03C262.139 38.5267 261.836 37.225 261.231 36.125C260.626 35.0067 259.792 34.1542 258.729 33.5675C257.665 32.9625 256.455 32.66 255.099 32.66C253.742 32.66 252.532 32.9625 251.469 33.5675C250.424 34.1542 249.59 35.0067 248.966 36.125C248.361 37.225 248.059 38.5267 248.059 40.03C248.059 41.5333 248.361 42.835 248.966 43.935C249.59 45.035 250.433 45.8875 251.496 46.4925C252.56 47.0975 253.76 47.4 255.099 47.4ZM291.486 54.825C288.424 54.825 285.729 54.2108 283.401 52.9825C281.091 51.7358 279.294 50.0033 278.011 47.785C276.728 45.5667 276.086 42.9817 276.086 40.03C276.086 37.8667 276.462 35.8867 277.214 34.09C277.965 32.275 279.019 30.7075 280.376 29.3875C281.733 28.0675 283.337 27.05 285.189 26.335C287.04 25.6017 289.066 25.235 291.266 25.235C293.704 25.235 295.868 25.6658 297.756 26.5275C299.663 27.3892 301.239 28.59 302.486 30.13C303.733 31.67 304.594 33.4758 305.071 35.5475C305.548 37.6008 305.575 39.8467 305.154 42.285H284.006C284.024 43.4583 284.354 44.485 284.996 45.365C285.656 46.245 286.564 46.9325 287.719 47.4275C288.874 47.9225 290.221 48.17 291.761 48.17C293.411 48.17 294.969 47.95 296.436 47.51C297.903 47.07 299.305 46.4008 300.644 45.5025L303.421 51.36C302.559 52.0383 301.45 52.6433 300.094 53.175C298.755 53.6883 297.325 54.0917 295.804 54.385C294.3 54.6783 292.861 54.825 291.486 54.825ZM284.529 36.4275H296.931C296.894 34.9242 296.354 33.7325 295.309 32.8525C294.264 31.9542 292.843 31.505 291.046 31.505C289.231 31.505 287.728 31.9542 286.536 32.8525C285.363 33.7325 284.694 34.9242 284.529 36.4275Z" fill="#093416"/>
<path d="M49.7216 47.3801C51.5011 43.5507 52.2579 39.3516 51.9225 35.1669C51.5872 30.9822 50.1704 26.9454 47.8019 23.4259C45.4334 19.9064 42.1887 17.0164 38.3646 15.0204C34.5405 13.0244 30.2591 11.986 25.912 12.0002C21.5649 12.0144 17.2909 13.0807 13.4809 15.1017C9.6709 17.1227 6.44653 20.0337 4.10273 23.5687C1.75893 27.1036 0.370524 31.1495 0.0645032 35.3363C-0.241518 39.5231 0.544618 43.7171 2.351 47.5348L4.7711 46.4674C3.14957 43.0403 2.44388 39.2755 2.71859 35.5171C2.99329 31.7588 4.23962 28.1269 6.34357 24.9537C8.44751 21.7806 11.3419 19.1674 14.762 17.3532C18.1822 15.5391 22.0188 14.5818 25.921 14.5691C29.8233 14.5563 33.6665 15.4885 37.0993 17.2803C40.532 19.072 43.4447 21.6662 45.5708 24.8256C47.697 27.9849 48.9687 31.6086 49.2698 35.3651C49.5708 39.1215 48.8915 42.8909 47.294 46.3284L49.7216 47.3801Z" fill="#093416"/>
<path d="M49.1622 49.0346C46.9886 52.9916 43.6811 56.3152 39.6037 58.6393C35.5263 60.9634 30.8372 62.1979 26.0526 62.2068C21.2681 62.2158 16.5736 60.999 12.4861 58.6902C8.39861 56.3815 5.07658 53.0704 2.88577 49.1215L5.22406 48.0034C7.19324 51.5528 10.1792 54.5289 13.8532 56.6041C17.5272 58.6793 21.7467 59.7731 26.0473 59.765C30.3478 59.7569 34.5626 58.6473 38.2275 56.5583C41.8924 54.4694 44.8654 51.482 46.8191 47.9253L49.1622 49.0346Z" fill="#6AFF97"/>
<path d="M35.753 50.358C33.0338 53.6172 29.3456 55.4483 25.5 55.4483C21.6544 55.4483 17.9662 53.6172 15.247 50.358L16.2288 49.1812C18.6877 52.1284 22.0226 53.784 25.5 53.784C28.9774 53.784 32.3123 52.1284 34.7712 49.1812L35.753 50.358Z" fill="#B5FFCB"/>
</svg>
