<svg width="322" height="72" viewBox="0 0 322 72" fill="none" xmlns="http://www.w3.org/2000/svg">
<path d="M79.44 55V24.475H69.1V16.5H98.5525V24.475H88.2125V55H79.44ZM109.711 55.825C107.859 55.825 106.191 55.4675 104.706 54.7525C103.239 54.0375 102.075 53.0108 101.213 51.6725C100.351 50.3158 99.9206 48.7025 99.9206 46.8325C99.9206 45.2375 100.315 43.8258 101.103 42.5975C101.91 41.3508 103.111 40.3242 104.706 39.5175C106.319 38.7108 108.354 38.17 110.811 37.895C113.267 37.6017 116.146 37.6108 119.446 37.9225L119.556 43.34C117.704 43.01 116.045 42.845 114.578 42.845C113.13 42.845 111.901 42.9825 110.893 43.2575C109.903 43.5325 109.142 43.9358 108.611 44.4675C108.079 44.9808 107.813 45.6225 107.813 46.3925C107.813 47.4192 108.198 48.2075 108.968 48.7575C109.738 49.2892 110.765 49.555 112.048 49.555C113.185 49.555 114.202 49.3533 115.101 48.95C116.017 48.5467 116.741 47.96 117.273 47.19C117.805 46.42 118.071 45.485 118.071 44.385V37.8675C118.071 36.8225 117.851 35.9058 117.411 35.1175C116.989 34.3292 116.311 33.715 115.376 33.275C114.459 32.835 113.24 32.615 111.718 32.615C110.288 32.615 108.858 32.835 107.428 33.275C106.016 33.715 104.724 34.3658 103.551 35.2275L101.323 29.2875C103.138 28.1325 105.063 27.2892 107.098 26.7575C109.151 26.2258 111.15 25.96 113.093 25.96C115.733 25.96 118.043 26.3817 120.023 27.225C122.003 28.05 123.543 29.3333 124.643 31.075C125.761 32.8167 126.321 35.0442 126.321 37.7575V55H118.841V52.0025C117.942 53.2308 116.696 54.175 115.101 54.835C113.524 55.495 111.727 55.825 109.711 55.825ZM143.93 55.7975C141.363 55.7975 139.017 55.4767 136.89 54.835C134.763 54.175 132.939 53.2675 131.418 52.1125L134.14 46.145C135.625 47.1167 137.229 47.8867 138.953 48.455C140.676 49.0233 142.317 49.3075 143.875 49.3075C145.342 49.3075 146.469 49.0967 147.258 48.675C148.046 48.2533 148.44 47.6392 148.44 46.8325C148.44 46.1175 148.083 45.595 147.368 45.265C146.653 44.9167 145.268 44.55 143.215 44.165C139.493 43.505 136.771 42.4508 135.048 41.0025C133.324 39.5542 132.463 37.5558 132.463 35.0075C132.463 33.2108 132.958 31.6342 133.948 30.2775C134.956 28.9208 136.34 27.8667 138.1 27.115C139.86 26.345 141.886 25.96 144.178 25.96C146.414 25.96 148.532 26.2625 150.53 26.8675C152.528 27.4725 154.243 28.3067 155.673 29.37L153.033 35.3375C152.281 34.7508 151.419 34.2467 150.448 33.825C149.494 33.385 148.495 33.0458 147.45 32.8075C146.405 32.5692 145.388 32.45 144.398 32.45C143.133 32.45 142.106 32.6517 141.318 33.055C140.529 33.44 140.135 33.9992 140.135 34.7325C140.135 35.4658 140.483 36.0067 141.18 36.355C141.877 36.7033 143.233 37.0975 145.25 37.5375C149.173 38.3442 151.96 39.4258 153.61 40.7825C155.26 42.1392 156.085 44.0275 156.085 46.4475C156.085 48.3358 155.572 49.9767 154.545 51.37C153.537 52.7633 152.116 53.8542 150.283 54.6425C148.468 55.4125 146.35 55.7975 143.93 55.7975ZM162.111 55V15.4H170.718V36.6025L179.463 27.06H189.473L179.683 38.28L190.408 55H180.206L173.413 43.9175L170.718 46.75V55H162.111ZM201.579 55V24.475H191.239V16.5H220.691V24.475H210.351V55H201.579ZM225.597 55V27.06H234.204V55H225.597ZM229.887 22.825C228.475 22.825 227.256 22.385 226.229 21.505C225.203 20.625 224.689 19.4425 224.689 17.9575C224.689 16.4725 225.203 15.29 226.229 14.41C227.256 13.53 228.475 13.09 229.887 13.09C231.299 13.09 232.518 13.53 233.544 14.41C234.571 15.29 235.084 16.4725 235.084 17.9575C235.084 19.4425 234.571 20.625 233.544 21.505C232.518 22.385 231.299 22.825 229.887 22.825ZM253.531 55.825C250.855 55.825 248.462 55.2108 246.354 53.9825C244.264 52.7358 242.614 51.0033 241.404 48.785C240.212 46.5667 239.616 43.9817 239.616 41.03C239.616 38.94 239.955 37.0058 240.634 35.2275C241.33 33.4308 242.302 31.8633 243.549 30.525C244.814 29.1683 246.299 28.1142 248.004 27.3625C249.727 26.6108 251.615 26.235 253.669 26.235C255.869 26.235 257.83 26.6658 259.554 27.5275C261.295 28.3892 262.799 29.6633 264.064 31.35L262.111 33.33V15.4H270.719V55H263.266V47.8225L264.449 49.775C263.624 51.5533 262.267 53.0108 260.379 54.1475C258.509 55.2658 256.226 55.825 253.531 55.825ZM255.099 48.4C256.437 48.4 257.638 48.0975 258.701 47.4925C259.765 46.8875 260.599 46.035 261.204 44.935C261.827 43.835 262.139 42.5333 262.139 41.03C262.139 39.5267 261.836 38.225 261.231 37.125C260.626 36.0067 259.792 35.1542 258.729 34.5675C257.665 33.9625 256.455 33.66 255.099 33.66C253.742 33.66 252.532 33.9625 251.469 34.5675C250.424 35.1542 249.59 36.0067 248.966 37.125C248.361 38.225 248.059 39.5267 248.059 41.03C248.059 42.5333 248.361 43.835 248.966 44.935C249.59 46.035 250.433 46.8875 251.496 47.4925C252.56 48.0975 253.76 48.4 255.099 48.4ZM291.486 55.825C288.424 55.825 285.729 55.2108 283.401 53.9825C281.091 52.7358 279.294 51.0033 278.011 48.785C276.728 46.5667 276.086 43.9817 276.086 41.03C276.086 38.8667 276.462 36.8867 277.214 35.09C277.965 33.275 279.019 31.7075 280.376 30.3875C281.733 29.0675 283.337 28.05 285.189 27.335C287.04 26.6017 289.066 26.235 291.266 26.235C293.704 26.235 295.868 26.6658 297.756 27.5275C299.663 28.3892 301.239 29.59 302.486 31.13C303.733 32.67 304.594 34.4758 305.071 36.5475C305.548 38.6008 305.575 40.8467 305.154 43.285H284.006C284.024 44.4583 284.354 45.485 284.996 46.365C285.656 47.245 286.564 47.9325 287.719 48.4275C288.874 48.9225 290.221 49.17 291.761 49.17C293.411 49.17 294.969 48.95 296.436 48.51C297.903 48.07 299.305 47.4008 300.644 46.5025L303.421 52.36C302.559 53.0383 301.45 53.6433 300.094 54.175C298.755 54.6883 297.325 55.0917 295.804 55.385C294.3 55.6783 292.861 55.825 291.486 55.825ZM284.529 37.4275H296.931C296.894 35.9242 296.354 34.7325 295.309 33.8525C294.264 32.9542 292.843 32.505 291.046 32.505C289.231 32.505 287.728 32.9542 286.536 33.8525C285.363 34.7325 284.694 35.9242 284.529 37.4275Z" fill="white"/>
<path d="M49.7216 47.6437C51.5011 43.6775 52.2579 39.3284 51.9225 34.9942C51.5872 30.6601 50.1704 26.4792 47.8019 22.834C45.4334 19.1888 42.1887 16.1956 38.3646 14.1283C34.5405 12.0609 30.2591 10.9854 25.912 11.0001C21.5649 11.0149 17.2909 12.1193 13.4809 14.2125C9.6709 16.3056 6.44653 19.3207 4.10273 22.9818C1.75893 26.643 0.370524 30.8334 0.0645032 35.1697C-0.241518 39.506 0.544618 43.8499 2.351 47.8039L4.7711 46.6983C3.14957 43.1489 2.44388 39.2496 2.71859 35.357C2.99329 31.4644 4.23962 27.7028 6.34357 24.4163C8.44751 21.1299 11.3419 18.4233 14.762 16.5444C18.1822 14.6654 22.0188 13.674 25.921 13.6608C29.8233 13.6476 33.6665 14.6131 37.0993 16.4688C40.532 18.3246 43.4447 21.0114 45.5708 24.2836C47.697 27.5558 48.9687 31.3089 49.2698 35.1995C49.5708 39.0901 48.8915 42.9942 47.294 46.5545L49.7216 47.6437Z" fill="#D9D9D9"/>
<path d="M49.1622 49.3572C46.9886 53.4556 43.6811 56.8979 39.6037 59.305C35.5263 61.7121 30.8372 62.9906 26.0526 62.9999C21.2681 63.0093 16.5736 61.7489 12.4861 59.3577C8.39861 56.9665 5.07658 53.5372 2.88577 49.4473L5.22406 48.2892C7.19324 51.9654 10.1792 55.0478 13.8532 57.1971C17.5272 59.3464 21.7467 60.4793 26.0473 60.4709C30.3478 60.4625 34.5626 59.3133 38.2275 57.1497C41.8924 54.9861 44.8654 51.8921 46.8191 48.2083L49.1622 49.3572Z" fill="#6AFF97"/>
<path d="M35.753 50.7279C33.0338 54.1036 29.3456 56 25.5 56C21.6544 56 17.9662 54.1036 15.247 50.7279L16.2288 49.5091C18.6877 52.5615 22.0226 54.2763 25.5 54.2764C28.9774 54.2764 32.3123 52.5615 34.7712 49.5091L35.753 50.7279Z" fill="#B5FFCB"/>
</svg>
