<svg width="240" height="70" viewBox="0 0 240 70" fill="none" xmlns="http://www.w3.org/2000/svg">
<path d="M75.072 47V28.13H68.68V23.2H86.887V28.13H80.495V47H75.072ZM93.7848 47.51C92.6401 47.51 91.6088 47.289 90.6908 46.847C89.7841 46.405 89.0644 45.7703 88.5318 44.943C87.9991 44.1043 87.7328 43.107 87.7328 41.951C87.7328 40.965 87.9764 40.0923 88.4638 39.333C88.9624 38.5623 89.7048 37.9277 90.6908 37.429C91.6881 36.9303 92.9461 36.596 94.4648 36.426C95.9834 36.2447 97.7628 36.2503 99.8028 36.443L99.8708 39.792C98.7261 39.588 97.7004 39.486 96.7938 39.486C95.8984 39.486 95.1391 39.571 94.5158 39.741C93.9038 39.911 93.4334 40.1603 93.1048 40.489C92.7761 40.8063 92.6118 41.203 92.6118 41.679C92.6118 42.3137 92.8498 42.801 93.3258 43.141C93.8018 43.4697 94.4364 43.634 95.2298 43.634C95.9324 43.634 96.5614 43.5093 97.1168 43.26C97.6834 43.0107 98.1311 42.648 98.4598 42.172C98.7884 41.696 98.9528 41.118 98.9528 40.438V36.409C98.9528 35.763 98.8168 35.1963 98.5448 34.709C98.2841 34.2217 97.8648 33.842 97.2868 33.57C96.7201 33.298 95.9664 33.162 95.0258 33.162C94.1418 33.162 93.2578 33.298 92.3738 33.57C91.5011 33.842 90.7021 34.2443 89.9768 34.777L88.5998 31.105C89.7218 30.391 90.9118 29.8697 92.1698 29.541C93.4391 29.2123 94.6744 29.048 95.8758 29.048C97.5078 29.048 98.9358 29.3087 100.16 29.83C101.384 30.34 102.336 31.1333 103.016 32.21C103.707 33.2867 104.053 34.6637 104.053 36.341V47H99.4288V45.147C98.8734 45.9063 98.1028 46.49 97.1168 46.898C96.1421 47.306 95.0314 47.51 93.7848 47.51ZM114.939 47.493C113.352 47.493 111.901 47.2947 110.587 46.898C109.272 46.49 108.144 45.929 107.204 45.215L108.887 41.526C109.805 42.1267 110.796 42.6027 111.862 42.954C112.927 43.3053 113.941 43.481 114.905 43.481C115.811 43.481 116.508 43.3507 116.996 43.09C117.483 42.8293 117.727 42.4497 117.727 41.951C117.727 41.509 117.506 41.186 117.064 40.982C116.622 40.7667 115.766 40.54 114.497 40.302C112.196 39.894 110.513 39.2423 109.448 38.347C108.382 37.4517 107.85 36.2163 107.85 34.641C107.85 33.5303 108.156 32.5557 108.768 31.717C109.391 30.8783 110.247 30.2267 111.335 29.762C112.423 29.286 113.675 29.048 115.092 29.048C116.474 29.048 117.783 29.235 119.019 29.609C120.254 29.983 121.314 30.4987 122.198 31.156L120.566 34.845C120.101 34.4823 119.568 34.1707 118.968 33.91C118.378 33.638 117.761 33.4283 117.115 33.281C116.469 33.1337 115.84 33.06 115.228 33.06C114.446 33.06 113.811 33.1847 113.324 33.434C112.836 33.672 112.593 34.0177 112.593 34.471C112.593 34.9243 112.808 35.2587 113.239 35.474C113.669 35.6893 114.508 35.933 115.755 36.205C118.18 36.7037 119.903 37.3723 120.923 38.211C121.943 39.0497 122.453 40.217 122.453 41.713C122.453 42.8803 122.135 43.8947 121.501 44.756C120.877 45.6173 119.999 46.2917 118.866 46.779C117.744 47.255 116.435 47.493 114.939 47.493ZM126.177 47V22.52H131.498V35.627L136.904 29.728H143.092L137.04 36.664L143.67 47H137.363L133.164 40.149L131.498 41.9V47H126.177ZM150.576 47V28.13H144.184V23.2H162.391V28.13H155.999V47H150.576ZM165.424 47V29.728H170.745V47H165.424ZM168.076 27.11C167.203 27.11 166.449 26.838 165.815 26.294C165.18 25.75 164.863 25.019 164.863 24.101C164.863 23.183 165.18 22.452 165.815 21.908C166.449 21.364 167.203 21.092 168.076 21.092C168.948 21.092 169.702 21.364 170.337 21.908C170.971 22.452 171.289 23.183 171.289 24.101C171.289 25.019 170.971 25.75 170.337 26.294C169.702 26.838 168.948 27.11 168.076 27.11ZM182.692 47.51C181.037 47.51 179.558 47.1303 178.255 46.371C176.963 45.6003 175.943 44.5293 175.195 43.158C174.458 41.7867 174.09 40.1887 174.09 38.364C174.09 37.072 174.3 35.8763 174.719 34.777C175.15 33.6663 175.75 32.6973 176.521 31.87C177.303 31.0313 178.221 30.3797 179.275 29.915C180.34 29.4503 181.508 29.218 182.777 29.218C184.137 29.218 185.35 29.4843 186.415 30.017C187.492 30.5497 188.421 31.3373 189.203 32.38L187.996 33.604V22.52H193.317V47H188.71V42.563L189.441 43.77C188.931 44.8693 188.092 45.7703 186.925 46.473C185.769 47.1643 184.358 47.51 182.692 47.51ZM183.661 42.92C184.488 42.92 185.231 42.733 185.888 42.359C186.545 41.985 187.061 41.458 187.435 40.778C187.82 40.098 188.013 39.2933 188.013 38.364C188.013 37.4347 187.826 36.63 187.452 35.95C187.078 35.2587 186.562 34.7317 185.905 34.369C185.248 33.995 184.5 33.808 183.661 33.808C182.822 33.808 182.074 33.995 181.417 34.369C180.771 34.7317 180.255 35.2587 179.87 35.95C179.496 36.63 179.309 37.4347 179.309 38.364C179.309 39.2933 179.496 40.098 179.87 40.778C180.255 41.458 180.777 41.985 181.434 42.359C182.091 42.733 182.834 42.92 183.661 42.92ZM206.155 47.51C204.262 47.51 202.596 47.1303 201.157 46.371C199.729 45.6003 198.618 44.5293 197.825 43.158C197.032 41.7867 196.635 40.1887 196.635 38.364C196.635 37.0267 196.867 35.8027 197.332 34.692C197.797 33.57 198.448 32.601 199.287 31.785C200.126 30.969 201.117 30.34 202.262 29.898C203.407 29.4447 204.659 29.218 206.019 29.218C207.526 29.218 208.864 29.4843 210.031 30.017C211.21 30.5497 212.184 31.292 212.955 32.244C213.726 33.196 214.258 34.3123 214.553 35.593C214.848 36.8623 214.865 38.2507 214.604 39.758H201.531C201.542 40.4833 201.746 41.118 202.143 41.662C202.551 42.206 203.112 42.631 203.826 42.937C204.54 43.243 205.373 43.396 206.325 43.396C207.345 43.396 208.308 43.26 209.215 42.988C210.122 42.716 210.989 42.3023 211.816 41.747L213.533 45.368C213 45.7873 212.315 46.1613 211.476 46.49C210.649 46.8073 209.765 47.0567 208.824 47.238C207.895 47.4193 207.005 47.51 206.155 47.51ZM201.854 36.137H209.521C209.498 35.2077 209.164 34.471 208.518 33.927C207.872 33.3717 206.994 33.094 205.883 33.094C204.761 33.094 203.832 33.3717 203.095 33.927C202.37 34.471 201.956 35.2077 201.854 36.137Z" fill="#093416"/>
<path d="M49.7216 47.3801C51.5011 43.5507 52.2579 39.3516 51.9225 35.1669C51.5872 30.9822 50.1704 26.9454 47.8019 23.4259C45.4334 19.9064 42.1887 17.0164 38.3646 15.0204C34.5405 13.0244 30.2591 11.986 25.912 12.0002C21.5649 12.0144 17.2909 13.0807 13.4809 15.1017C9.6709 17.1227 6.44653 20.0337 4.10273 23.5687C1.75893 27.1036 0.370524 31.1495 0.0645032 35.3363C-0.241518 39.5231 0.544618 43.7171 2.351 47.5348L4.7711 46.4674C3.14957 43.0403 2.44388 39.2755 2.71859 35.5171C2.99329 31.7588 4.23962 28.1269 6.34357 24.9537C8.44751 21.7806 11.3419 19.1674 14.762 17.3532C18.1822 15.5391 22.0188 14.5818 25.921 14.5691C29.8233 14.5563 33.6665 15.4885 37.0993 17.2803C40.532 19.072 43.4447 21.6662 45.5708 24.8256C47.697 27.9849 48.9687 31.6086 49.2698 35.3651C49.5708 39.1215 48.8915 42.8909 47.294 46.3284L49.7216 47.3801Z" fill="#093416"/>
<path d="M49.1622 49.0346C46.9886 52.9916 43.6811 56.3152 39.6037 58.6393C35.5263 60.9634 30.8372 62.1979 26.0526 62.2068C21.2681 62.2158 16.5736 60.999 12.4861 58.6902C8.39861 56.3815 5.07658 53.0704 2.88577 49.1215L5.22406 48.0034C7.19324 51.5528 10.1792 54.5289 13.8532 56.6041C17.5272 58.6793 21.7467 59.7731 26.0473 59.765C30.3478 59.7569 34.5626 58.6473 38.2275 56.5583C41.8924 54.4694 44.8654 51.482 46.8191 47.9253L49.1622 49.0346Z" fill="#6AFF97"/>
<path d="M35.753 50.358C33.0338 53.6172 29.3456 55.4483 25.5 55.4483C21.6544 55.4483 17.9662 53.6172 15.247 50.358L16.2288 49.1812C18.6877 52.1284 22.0226 53.784 25.5 53.784C28.9774 53.784 32.3123 52.1284 34.7712 49.1812L35.753 50.358Z" fill="#B5FFCB"/>
</svg>
