<svg width="32" height="32" viewBox="0 0 32 32" fill="none" xmlns="http://www.w3.org/2000/svg">
<path d="M11 0H4C2.94011 0.00316545 1.92453 0.425609 1.17507 1.17507C0.425609 1.92453 0.00316545 2.94011 0 4V11C0.00316545 12.0599 0.425609 13.0755 1.17507 13.8249C1.92453 14.5744 2.94011 14.9968 4 15H11C12.0599 14.9968 13.0755 14.5744 13.8249 13.8249C14.5744 13.0755 14.9968 12.0599 15 11V4C14.9968 2.94011 14.5744 1.92453 13.8249 1.17507C13.0755 0.425609 12.0599 0.00316545 11 0ZM11 11H4V4H11V11ZM30 5.5C29.4696 5.5 28.9609 5.71071 28.5858 6.08579C28.2107 6.46086 28 6.96957 28 7.5V11H21V4H24.5C25.0304 4 25.5391 3.78929 25.9142 3.41421C26.2893 3.03914 26.5 2.53043 26.5 2C26.5 1.46957 26.2893 0.960859 25.9142 0.585786C25.5391 0.210714 25.0304 0 24.5 0H21C19.9401 0.00316545 18.9245 0.425609 18.1751 1.17507C17.4256 1.92453 17.0032 2.94011 17 4V11C17.0032 12.0599 17.4256 13.0755 18.1751 13.8249C18.9245 14.5744 19.9401 14.9968 21 15H28C29.0599 14.9968 30.0755 14.5744 30.8249 13.8249C31.5744 13.0755 31.9968 12.0599 32 11V7.5C32 6.96957 31.7893 6.46086 31.4142 6.08579C31.0391 5.71071 30.5304 5.5 30 5.5ZM11 17H4C2.94011 17.0032 1.92453 17.4256 1.17507 18.1751C0.425609 18.9245 0.00316545 19.9401 0 21V28C0.00316545 29.0599 0.425609 30.0755 1.17507 30.8249C1.92453 31.5744 2.94011 31.9968 4 32H11C12.0599 31.9968 13.0755 31.5744 13.8249 30.8249C14.5744 30.0755 14.9968 29.0599 15 28V21C14.9968 19.9401 14.5744 18.9245 13.8249 18.1751C13.0755 17.4256 12.0599 17.0032 11 17ZM11 28H4V21H11V28ZM28 17H21C19.9401 17.0032 18.9245 17.4256 18.1751 18.1751C17.4256 18.9245 17.0032 19.9401 17 21V28C17.0032 29.0599 17.4256 30.0755 18.1751 30.8249C18.9245 31.5744 19.9401 31.9968 21 32H28C29.0599 31.9968 30.0755 31.5744 30.8249 30.8249C31.5744 30.0755 31.9968 29.0599 32 28V21C31.9968 19.9401 31.5744 18.9245 30.8249 18.1751C30.0755 17.4256 29.0599 17.0032 28 17ZM28 28H21V21H28V28Z" fill="#676767"/>
</svg>
