<svg width="35" height="36" viewBox="0 0 35 36" fill="none" xmlns="http://www.w3.org/2000/svg">
<rect width="35" height="36" rx="5" fill="#FF6CFD"/>
<path d="M13.911 26V11.3H19.2345C20.2775 11.3 21.198 11.482 21.996 11.846C22.801 12.203 23.431 12.721 23.886 13.4C24.341 14.072 24.5685 14.8805 24.5685 15.8255C24.5685 16.7985 24.3585 17.621 23.9385 18.293C23.5185 18.958 22.906 19.4655 22.101 19.8155C21.303 20.1585 20.33 20.33 19.182 20.33H16.263V26H13.911ZM16.263 18.314H19.2135C20.1655 18.314 20.904 18.1145 21.429 17.7155C21.954 17.3095 22.2165 16.697 22.2165 15.878C22.2165 15.066 21.947 14.443 21.408 14.009C20.869 13.575 20.1445 13.358 19.2345 13.358H16.263V18.314Z" fill="white"/>
</svg>
